<mxfile host="app.diagrams.net" modified="2023-07-11T07:44:21.049Z" agent="Mozilla/5.0 (Windows NT 10.0; Win64; x64) AppleWebKit/537.36 (KHTML, like Gecko) Chrome/107.0.0.0 Safari/537.36" etag="QAXImecYhJ3KMspZMJGq" version="21.6.1" type="github">
  <diagram name="第 1 页" id="DJrq4cUEGdOF2k4MxfaL">
    <mxGraphModel dx="2029" dy="1060" grid="1" gridSize="10" guides="1" tooltips="1" connect="1" arrows="1" fold="1" page="1" pageScale="1" pageWidth="827" pageHeight="1169" math="0" shadow="0">
      <root>
        <mxCell id="0" />
        <mxCell id="1" parent="0" />
        <mxCell id="Gf2zHYH8hHyvWzBXPm6F-1" value="" style="group" vertex="1" connectable="0" parent="1">
          <mxGeometry x="230" y="235" width="150" height="105" as="geometry" />
        </mxCell>
        <mxCell id="Gf2zHYH8hHyvWzBXPm6F-2" value="7个状态()&#xa;" style="rounded=1;fillColor=#d5e8d4;strokeColor=#82b366;strokeWidth=2;glass=0;shadow=0;perimeterSpacing=0;fillStyle=auto;fontFamily=Helvetica;fontSize=14;fontColor=#030303;sketch=1;curveFitting=1;jiggle=2;fontStyle=2" vertex="1" parent="Gf2zHYH8hHyvWzBXPm6F-1">
          <mxGeometry y="30" width="150" height="75" as="geometry" />
        </mxCell>
        <mxCell id="Gf2zHYH8hHyvWzBXPm6F-3" value="IStateHandler" style="rounded=1;fillColor=#d5e8d4;strokeColor=#82b366;strokeWidth=2;glass=0;shadow=0;perimeterSpacing=0;fillStyle=auto;fontFamily=Helvetica;fontSize=18;fontColor=#030303;sketch=1;curveFitting=1;jiggle=2;fontStyle=2" vertex="1" parent="Gf2zHYH8hHyvWzBXPm6F-1">
          <mxGeometry width="150" height="30" as="geometry" />
        </mxCell>
        <mxCell id="Gf2zHYH8hHyvWzBXPm6F-9" value="" style="group" vertex="1" connectable="0" parent="1">
          <mxGeometry x="230" y="630" width="150" height="104.99999999999989" as="geometry" />
        </mxCell>
        <mxCell id="Gf2zHYH8hHyvWzBXPm6F-10" value="7个状态()&#xa;" style="whiteSpace=wrap;fontSize=14;fontFamily=Helvetica;rounded=1;strokeWidth=2;glass=0;shadow=0;fillStyle=auto;sketch=1;curveFitting=1;jiggle=2;fillColor=#b1ddf0;strokeColor=#1DA3DD;aspect=fixed;verticalAlign=middle;fontStyle=2" vertex="1" parent="Gf2zHYH8hHyvWzBXPm6F-9">
          <mxGeometry y="29.999999999999886" width="150" height="75" as="geometry" />
        </mxCell>
        <mxCell id="Gf2zHYH8hHyvWzBXPm6F-11" value="StateHandlerImpl" style="whiteSpace=wrap;fontSize=18;fontFamily=Helvetica;rounded=1;strokeWidth=2;glass=0;shadow=0;fillStyle=auto;sketch=1;curveFitting=1;jiggle=2;fillColor=#b1ddf0;strokeColor=#1DA3DD;verticalAlign=middle;fontStyle=2" vertex="1" parent="Gf2zHYH8hHyvWzBXPm6F-9">
          <mxGeometry width="150" height="30" as="geometry" />
        </mxCell>
        <mxCell id="Gf2zHYH8hHyvWzBXPm6F-13" value="Implements" style="text;align=center;verticalAlign=middle;resizable=0;points=[];autosize=1;strokeColor=#2D7600;fillColor=#60a917;fontSize=10;fontColor=#ffffff;" vertex="1" parent="1">
          <mxGeometry x="260" y="360" width="90" height="30" as="geometry" />
        </mxCell>
        <mxCell id="Gf2zHYH8hHyvWzBXPm6F-15" value="" style="group" vertex="1" connectable="0" parent="1">
          <mxGeometry x="590" y="465" width="150" height="104.99999999999989" as="geometry" />
        </mxCell>
        <mxCell id="Gf2zHYH8hHyvWzBXPm6F-16" value="7个状态对象Map&#xa;" style="whiteSpace=wrap;fontSize=14;fontFamily=Helvetica;rounded=1;strokeWidth=2;glass=0;shadow=0;fillStyle=auto;sketch=1;curveFitting=1;jiggle=2;fillColor=#b1ddf0;strokeColor=#1DA3DD;aspect=fixed;verticalAlign=middle;fontStyle=2" vertex="1" parent="Gf2zHYH8hHyvWzBXPm6F-15">
          <mxGeometry y="29.999999999999886" width="150" height="75" as="geometry" />
        </mxCell>
        <mxCell id="Gf2zHYH8hHyvWzBXPm6F-17" value="StateConfig" style="whiteSpace=wrap;fontSize=18;fontFamily=Helvetica;rounded=1;strokeWidth=2;glass=0;shadow=0;fillStyle=auto;sketch=1;curveFitting=1;jiggle=2;fillColor=#b1ddf0;strokeColor=#1DA3DD;verticalAlign=middle;fontStyle=2" vertex="1" parent="Gf2zHYH8hHyvWzBXPm6F-15">
          <mxGeometry width="150" height="30" as="geometry" />
        </mxCell>
        <mxCell id="Gf2zHYH8hHyvWzBXPm6F-20" value="Extends" style="text;align=center;verticalAlign=middle;resizable=0;points=[];autosize=1;strokeColor=#006EAF;fillColor=#1ba1e2;fontColor=#ffffff;fontSize=10;rotation=90;" vertex="1" parent="1">
          <mxGeometry x="430" y="502.5" width="70" height="30" as="geometry" />
        </mxCell>
        <mxCell id="Gf2zHYH8hHyvWzBXPm6F-21" value="" style="group" vertex="1" connectable="0" parent="1">
          <mxGeometry x="970" y="80" width="150" height="105" as="geometry" />
        </mxCell>
        <mxCell id="Gf2zHYH8hHyvWzBXPm6F-4" value="7个状态方法（）" style="whiteSpace=wrap;fontSize=16;fontFamily=Georgia;rounded=1;strokeWidth=2;glass=0;shadow=0;fillStyle=auto;sketch=1;curveFitting=1;jiggle=2;fillColor=#b1ddf0;strokeColor=#10739e;aspect=fixed;verticalAlign=middle;fontStyle=2" vertex="1" parent="Gf2zHYH8hHyvWzBXPm6F-21">
          <mxGeometry y="30" width="150" height="75" as="geometry" />
        </mxCell>
        <mxCell id="Gf2zHYH8hHyvWzBXPm6F-5" value="AbstractState" style="whiteSpace=wrap;fontSize=16;fontFamily=Georgia;rounded=1;strokeWidth=2;glass=0;shadow=0;fillStyle=auto;sketch=1;curveFitting=1;jiggle=2;fillColor=#b1ddf0;strokeColor=#10739e;verticalAlign=middle;fontStyle=2" vertex="1" parent="Gf2zHYH8hHyvWzBXPm6F-21">
          <mxGeometry width="150" height="30" as="geometry" />
        </mxCell>
        <mxCell id="Gf2zHYH8hHyvWzBXPm6F-27" style="edgeStyle=orthogonalEdgeStyle;rounded=0;orthogonalLoop=1;jettySize=auto;html=1;" edge="1" parent="1" source="Gf2zHYH8hHyvWzBXPm6F-25">
          <mxGeometry relative="1" as="geometry">
            <mxPoint x="1050" y="190" as="targetPoint" />
          </mxGeometry>
        </mxCell>
        <mxCell id="Gf2zHYH8hHyvWzBXPm6F-25" value="ArraignmentState" style="whiteSpace=wrap;fontSize=18;fontFamily=Helvetica;rounded=1;strokeWidth=2;glass=0;shadow=0;fillStyle=auto;sketch=1;curveFitting=1;jiggle=2;fillColor=#b1ddf0;strokeColor=#1DA3DD;verticalAlign=middle;fontStyle=2" vertex="1" parent="1">
          <mxGeometry x="820" y="311" width="150" height="40" as="geometry" />
        </mxCell>
        <mxCell id="Gf2zHYH8hHyvWzBXPm6F-34" style="edgeStyle=orthogonalEdgeStyle;rounded=0;orthogonalLoop=1;jettySize=auto;html=1;" edge="1" parent="1" source="Gf2zHYH8hHyvWzBXPm6F-28">
          <mxGeometry relative="1" as="geometry">
            <mxPoint x="1050" y="300" as="targetPoint" />
          </mxGeometry>
        </mxCell>
        <mxCell id="Gf2zHYH8hHyvWzBXPm6F-28" value="CloseState" style="whiteSpace=wrap;fontSize=18;fontFamily=Helvetica;rounded=1;strokeWidth=2;glass=0;shadow=0;fillStyle=auto;sketch=1;curveFitting=1;jiggle=2;fillColor=#b1ddf0;strokeColor=#1DA3DD;verticalAlign=middle;fontStyle=2" vertex="1" parent="1">
          <mxGeometry x="820" y="380" width="150" height="40" as="geometry" />
        </mxCell>
        <mxCell id="Gf2zHYH8hHyvWzBXPm6F-35" style="edgeStyle=orthogonalEdgeStyle;rounded=0;orthogonalLoop=1;jettySize=auto;html=1;" edge="1" parent="1" source="Gf2zHYH8hHyvWzBXPm6F-29">
          <mxGeometry relative="1" as="geometry">
            <mxPoint x="1050" y="370" as="targetPoint" />
          </mxGeometry>
        </mxCell>
        <mxCell id="Gf2zHYH8hHyvWzBXPm6F-29" value="DoingState" style="whiteSpace=wrap;fontSize=18;fontFamily=Helvetica;rounded=1;strokeWidth=2;glass=0;shadow=0;fillStyle=auto;sketch=1;curveFitting=1;jiggle=2;fillColor=#b1ddf0;strokeColor=#1DA3DD;verticalAlign=middle;fontStyle=2" vertex="1" parent="1">
          <mxGeometry x="820" y="440" width="150" height="40" as="geometry" />
        </mxCell>
        <mxCell id="Gf2zHYH8hHyvWzBXPm6F-36" style="edgeStyle=orthogonalEdgeStyle;rounded=0;orthogonalLoop=1;jettySize=auto;html=1;" edge="1" parent="1" source="Gf2zHYH8hHyvWzBXPm6F-30">
          <mxGeometry relative="1" as="geometry">
            <mxPoint x="1050" y="440" as="targetPoint" />
          </mxGeometry>
        </mxCell>
        <mxCell id="Gf2zHYH8hHyvWzBXPm6F-30" value="EditingState" style="whiteSpace=wrap;fontSize=18;fontFamily=Helvetica;rounded=1;strokeWidth=2;glass=0;shadow=0;fillStyle=auto;sketch=1;curveFitting=1;jiggle=2;fillColor=#b1ddf0;strokeColor=#1DA3DD;verticalAlign=middle;fontStyle=2" vertex="1" parent="1">
          <mxGeometry x="820" y="500" width="150" height="40" as="geometry" />
        </mxCell>
        <mxCell id="Gf2zHYH8hHyvWzBXPm6F-37" style="edgeStyle=orthogonalEdgeStyle;rounded=0;orthogonalLoop=1;jettySize=auto;html=1;" edge="1" parent="1" source="Gf2zHYH8hHyvWzBXPm6F-31">
          <mxGeometry relative="1" as="geometry">
            <mxPoint x="1050" y="490" as="targetPoint" />
          </mxGeometry>
        </mxCell>
        <mxCell id="Gf2zHYH8hHyvWzBXPm6F-31" value="OpenState" style="whiteSpace=wrap;fontSize=18;fontFamily=Helvetica;rounded=1;strokeWidth=2;glass=0;shadow=0;fillStyle=auto;sketch=1;curveFitting=1;jiggle=2;fillColor=#b1ddf0;strokeColor=#1DA3DD;verticalAlign=middle;fontStyle=2" vertex="1" parent="1">
          <mxGeometry x="820" y="570" width="150" height="40" as="geometry" />
        </mxCell>
        <mxCell id="Gf2zHYH8hHyvWzBXPm6F-38" style="edgeStyle=orthogonalEdgeStyle;rounded=0;orthogonalLoop=1;jettySize=auto;html=1;" edge="1" parent="1" source="Gf2zHYH8hHyvWzBXPm6F-32">
          <mxGeometry relative="1" as="geometry">
            <mxPoint x="1050" y="570" as="targetPoint" />
          </mxGeometry>
        </mxCell>
        <mxCell id="Gf2zHYH8hHyvWzBXPm6F-32" value="PassState" style="whiteSpace=wrap;fontSize=18;fontFamily=Helvetica;rounded=1;strokeWidth=2;glass=0;shadow=0;fillStyle=auto;sketch=1;curveFitting=1;jiggle=2;fillColor=#b1ddf0;strokeColor=#1DA3DD;verticalAlign=middle;fontStyle=2" vertex="1" parent="1">
          <mxGeometry x="820" y="630" width="150" height="40" as="geometry" />
        </mxCell>
        <mxCell id="Gf2zHYH8hHyvWzBXPm6F-39" style="edgeStyle=orthogonalEdgeStyle;rounded=0;orthogonalLoop=1;jettySize=auto;html=1;" edge="1" parent="1" source="Gf2zHYH8hHyvWzBXPm6F-33">
          <mxGeometry relative="1" as="geometry">
            <mxPoint x="1050" y="640" as="targetPoint" />
          </mxGeometry>
        </mxCell>
        <mxCell id="Gf2zHYH8hHyvWzBXPm6F-33" value="RefuseState" style="whiteSpace=wrap;fontSize=18;fontFamily=Helvetica;rounded=1;strokeWidth=2;glass=0;shadow=0;fillStyle=auto;sketch=1;curveFitting=1;jiggle=2;fillColor=#b1ddf0;strokeColor=#1DA3DD;verticalAlign=middle;fontStyle=2" vertex="1" parent="1">
          <mxGeometry x="820" y="690" width="150" height="40" as="geometry" />
        </mxCell>
        <mxCell id="Gf2zHYH8hHyvWzBXPm6F-40" value="" style="shape=curlyBracket;whiteSpace=wrap;html=1;rounded=1;labelPosition=left;verticalLabelPosition=middle;align=right;verticalAlign=middle;" vertex="1" parent="1">
          <mxGeometry x="740" y="275" width="100" height="490" as="geometry" />
        </mxCell>
        <mxCell id="Gf2zHYH8hHyvWzBXPm6F-41" value="Implements" style="text;align=center;verticalAlign=middle;resizable=0;points=[];autosize=1;strokeColor=#2D7600;fillColor=#60a917;fontSize=10;fontColor=#ffffff;" vertex="1" parent="1">
          <mxGeometry x="1010" y="230" width="90" height="30" as="geometry" />
        </mxCell>
        <mxCell id="Gf2zHYH8hHyvWzBXPm6F-42" style="edgeStyle=orthogonalEdgeStyle;rounded=0;orthogonalLoop=1;jettySize=auto;html=1;entryX=0.5;entryY=1;entryDx=0;entryDy=0;" edge="1" parent="1" source="Gf2zHYH8hHyvWzBXPm6F-11" target="Gf2zHYH8hHyvWzBXPm6F-2">
          <mxGeometry relative="1" as="geometry" />
        </mxCell>
        <mxCell id="Gf2zHYH8hHyvWzBXPm6F-43" style="edgeStyle=orthogonalEdgeStyle;rounded=0;orthogonalLoop=1;jettySize=auto;html=1;entryX=-0.023;entryY=0.347;entryDx=0;entryDy=0;entryPerimeter=0;" edge="1" parent="1" source="Gf2zHYH8hHyvWzBXPm6F-11" target="Gf2zHYH8hHyvWzBXPm6F-16">
          <mxGeometry relative="1" as="geometry">
            <mxPoint x="380" y="420" as="targetPoint" />
            <Array as="points">
              <mxPoint x="305" y="521" />
            </Array>
          </mxGeometry>
        </mxCell>
      </root>
    </mxGraphModel>
  </diagram>
</mxfile>
